<svg xmlns="http://www.w3.org/2000/svg" width="351.3447" height="475.32182" viewBox="0 0 351.3447 475.32182" xmlns:xlink="http://www.w3.org/1999/xlink"><path d="M290.51554,458.10566c2.06592,.12936,3.20769-2.43738,1.64468-3.93332l-.1555-.61819c.02048-.0495,.04105-.09897,.06178-.14838,2.08923-4.98181,9.16992-4.94742,11.24139,.04178,1.83859,4.42816,4.17942,8.86389,4.75579,13.54593,.25838,2.0668,.14213,4.17236-.31648,6.20047,4.30807-9.41058,6.57515-19.68661,6.57515-30.02078,0-2.59653-.14213-5.19302-.43275-7.78296-.239-2.11853-.56839-4.22409-.99471-6.31033-2.30575-11.27719-7.29852-22.01825-14.50012-30.98962-3.46197-1.89249-6.34907-4.85065-8.09295-8.39651-.6265-1.2789-1.11739-2.65463-1.34991-4.05618,.39398,.05167,1.48557-5.94867,1.18842-6.3168,.54906-.83316,1.53178-1.24734,2.13144-2.06033,2.98232-4.0434,7.0912-3.3374,9.23621,2.15726,4.58224,2.31265,4.62659,6.14807,1.81495,9.83682-1.78878,2.34683-2.03456,5.52234-3.60408,8.03479,.16151,.2067,.32944,.40695,.4909,.61365,2.96106,3.79788,5.52208,7.88,7.68104,12.16858-.61017-4.7662,.29067-10.50821,1.82641-14.20959,1.74819-4.21732,5.02491-7.76917,7.91045-11.41501,3.46601-4.37924,10.57337-2.46805,11.18401,3.08331,.00591,.05374,.01166,.10745,.01731,.16119-.4286,.24179-.84849,.49866-1.25864,.76993-2.33949,1.54724-1.53096,5.17386,1.24107,5.60175l.06277,.00967c-.15503,1.54367-.41984,3.07443-.80734,4.57938,3.70179,14.3158-4.29011,19.52991-15.70147,19.76413-.25191,.12915-.49738,.25833-.74929,.3811,1.15617,3.25525,2.07982,6.59448,2.76441,9.97891,.61359,2.99042,1.03991,6.01318,1.27885,9.04889,.29715,3.83005,.27129,7.6796-.05168,11.50323l.01939-.13562c.82024-4.21115,3.10671-8.14462,6.4266-10.87027,4.94561-4.06265,11.93282-5.55869,17.26826-8.82425,2.56833-1.57196,5.85945,.45944,5.41121,3.43707l-.02182,.14261c-.79443,.32288-1.56947,.69754-2.31871,1.11734-.4286,.24185-.84848,.49866-1.25864,.76993-2.33949,1.5473-1.53096,5.17392,1.24107,5.60181l.06282,.00964c.0452,.00647,.08397,.01294,.12911,.01944-1.36282,3.23581-3.26168,6.23923-5.63854,8.82922-2.31463,12.49713-12.25603,13.68283-22.89022,10.04355h-.00648c-1.16259,5.06378-2.86128,10.01126-5.0444,14.72623h-18.0202c-.06464-.2002-.12274-.40692-.18089-.60718,1.6664,.10339,3.3457,.00647,4.9863-.297-1.33701-1.64059-2.67397-3.2941-4.01097-4.93463-.03229-.03229-.05817-.06461-.08397-.09689-.67818-.8396-1.36282-1.67282-2.04099-2.51245l-.00037-.00101c-.04245-2.57755,.26653-5.14661,.87875-7.63983l.00056-.00034,.00003-.00012Z" fill="#f2f2f2"/><path d="M101.89104,443.98122c-3.87952,.24293-6.02362-4.57708-3.0885-7.38626l.29201-1.16089c-.03845-.09295-.07708-.18585-.11602-.27863-3.92331-9.35519-17.21992-9.29061-21.10987,.07845-3.45264,8.31551-7.84841,16.64523-8.93075,25.43749-.4852,3.88119-.2669,7.83515,.59431,11.64367-8.08999-17.67185-12.34727-36.96889-12.34727-56.37511,0-4.87594,.2669-9.75182,.81264-14.61538,.44881-3.97832,1.06736-7.93229,1.86794-11.84998,4.32989-21.17709,13.70567-41.3474,27.22934-58.19447,6.50112-3.55384,11.92272-9.10888,15.1975-15.76756,1.17648-2.40161,2.0983-4.98505,2.53496-7.61698-.73985,.09702-2.7897-11.17082-2.23169-11.86213-1.03106-1.56457-2.87649-2.34235-4.00256-3.86904-5.6004-7.59297-13.31635-6.26721-17.34439,4.05105-8.60484,4.34286-8.68813,11.54528-3.40824,18.47227,3.3591,4.40704,3.82064,10.37023,6.76799,15.08829-.30329,.38815-.61864,.7642-.92184,1.15235-5.56048,7.13193-10.36974,14.79762-14.42399,22.851,1.14582-8.95031-.54584-19.73305-3.42976-26.68376-3.28288-7.91957-9.43613-14.58948-14.85479-21.4359-6.50872-8.22364-19.85541-4.63467-21.0021,5.79006-.0111,.10092-.02189,.20178-.03251,.3027,.80485,.45405,1.59335,.93641,2.36356,1.44582,4.39326,2.90552,2.87494,9.71583-2.33057,10.51935l-.11787,.01817c.29112,2.89881,.7884,5.77338,1.51608,8.59947-6.95148,26.8832,8.05626,36.67462,29.48531,37.11446,.47305,.24253,.93402,.48511,1.40707,.71566-2.17114,6.11293-3.90563,12.38358-5.1912,18.7391-1.15224,5.61561-1.95281,11.29197-2.40151,16.99263-.55801,7.19233-.50945,14.42128,.09705,21.60157l-.0364-.25468c-1.54031-7.90799-5.834-15.29454-12.06831-20.41295-9.28721-7.62913-22.40828-10.43849-32.42753-16.57079-4.82299-2.95194-11.00328,.86277-10.16154,6.45437l.04098,.2678c1.49184,.60632,2.94727,1.30989,4.35424,2.09822,.80485,.45417,1.59334,.93641,2.36356,1.44582,4.39326,2.90563,2.87494,9.71595-2.33057,10.51946l-.11797,.01811c-.08487,.01215-.15768,.0243-.24246,.03651,2.5592,6.07643,6.12501,11.71645,10.58845,16.58013,4.34657,23.46798,23.01522,25.69457,42.98485,18.86047h.01216c2.18319,9.50912,5.37311,18.79984,9.47273,27.65393h33.83957c.12138-.37594,.23049-.76415,.33969-1.1402-3.12928,.19416-6.28279,.01215-9.36362-.55772,2.51072-3.08082,5.02136-6.18589,7.53208-9.26659,.06063-.06063,.10923-.12132,.15768-.18195,1.27353-1.57666,2.5592-3.14134,3.8327-4.71806l.00069-.00189c.07972-4.84029-.5005-9.66466-1.65018-14.34661l-.00106-.00063-.00006-.00023Z" fill="#f2f2f2"/><path d="M225.04471,143.57182c0-.23004-.01001-.45001-.02002-.67999,0-.19-.01001-.38-.02002-.57001h-11.12994c-.26001,.26996-.52002,.51996-.79004,.73999-.12,.10999-.25,.21002-.37,.29999-.08997,.08002-.17999,.14001-.27002,.20001-.25,.16998-.48999,.32001-.73999,.44-.08997,.04999-.17999,.08997-.26996,.12-.22003,.09998-.44,.15997-.66003,.20001h14.28003c0-.25,0-.5-.01001-.75Zm-22.16998,.25c-.35004-.02002-.69-.04999-1.04004-.07001-1.10999-.08002-2.23999-.15002-3.37-.22998-.57001-.04004-1.13-.07001-1.69-.11005-.06,0-.10999-.01996-.16998-.03998-.03003-.02002-.06-.03003-.09003-.06-.06-.03003-.13-.09003-.19-.16003-.06-.06-.12-.13995-.17999-.21997-.04999-.07001-.10999-.15997-.15997-.23999-.07001-.12-.13-.23999-.20001-.37h-4.07001c-.06,.10999-.12,.20001-.16998,.27997l-.02002,.02002c-.04999,.07001-.09998,.14001-.14996,.19-.12006,.13-.23004,.20001-.34003,.19-.21002-.02002-.41998-.03998-.62-.09003-.08002-.01001-.15002-.02997-.22998-.04999-.07001-.02002-.15002-.03998-.22003-.06-.15997-.04999-.32001-.10999-.46997-.16998-.04004-.02002-.08002-.03003-.12-.04999-.17004-.08002-.34003-.16003-.51001-.26001h-12.62c-.49005,.64996-.94,1.32001-1.37,2h34.72998c-2.03003-.17999-4.33002-.34003-6.72998-.5Zm22.16998-.25c0-.23004-.01001-.45001-.02002-.67999,0-.19-.01001-.38-.02002-.57001h-11.12994c-.26001,.26996-.52002,.51996-.79004,.73999-.12,.10999-.25,.21002-.37,.29999-.08997,.08002-.17999,.14001-.27002,.20001-.25,.16998-.48999,.32001-.73999,.44-.08997,.04999-.17999,.08997-.26996,.12-.22003,.09998-.44,.15997-.66003,.20001h14.28003c0-.25,0-.5-.01001-.75Zm-22.16998,.25c-.35004-.02002-.69-.04999-1.04004-.07001-1.10999-.08002-2.23999-.15002-3.37-.22998-.57001-.04004-1.13-.07001-1.69-.11005-.06,0-.10999-.01996-.16998-.03998-.03003-.02002-.06-.03003-.09003-.06-.06-.03003-.13-.09003-.19-.16003-.06-.06-.12-.13995-.17999-.21997-.04999-.07001-.10999-.15997-.15997-.23999-.07001-.12-.13-.23999-.20001-.37h-4.07001c-.06,.10999-.12,.20001-.16998,.27997l-.02002,.02002c-.04999,.07001-.09998,.14001-.14996,.19-.12006,.13-.23004,.20001-.34003,.19-.21002-.02002-.41998-.03998-.62-.09003-.08002-.01001-.15002-.02997-.22998-.04999-.07001-.02002-.15002-.03998-.22003-.06-.15997-.04999-.32001-.10999-.46997-.16998-.04004-.02002-.08002-.03003-.12-.04999-.17004-.08002-.34003-.16003-.51001-.26001h-12.62c-.49005,.64996-.94,1.32001-1.37,2h34.72998c-2.03003-.17999-4.33002-.34003-6.72998-.5Zm129.44995-1.5H46.36472c-10.48999,0-19.02002,8.52997-19.02002,19.01996V456.30181c0,10.48999,8.53003,19.02002,19.02002,19.02002H332.32468c10.48999,0,19.02002-8.53003,19.02002-19.02002V161.34178c0-10.48999-8.53003-19.01996-19.02002-19.01996Zm17.02002,313.97998c0,9.39001-7.63,17.02002-17.02002,17.02002H46.36472c-9.39001,0-17.02002-7.63-17.02002-17.02002V161.34178c0-9.38995,7.63-17.01996,17.02002-17.01996H332.32468c9.39001,0,17.02002,7.63,17.02002,17.01996V456.30181ZM202.87473,143.82182c-.35004-.02002-.69-.04999-1.04004-.07001-1.10999-.08002-2.23999-.15002-3.37-.22998-.57001-.04004-1.13-.07001-1.69-.11005-.06,0-.10999-.01996-.16998-.03998-.03003-.02002-.06-.03003-.09003-.06-.06-.03003-.13-.09003-.19-.16003-.06-.06-.12-.13995-.17999-.21997-.04999-.07001-.10999-.15997-.15997-.23999-.07001-.12-.13-.23999-.20001-.37h-4.07001c-.06,.10999-.12,.20001-.16998,.27997l-.02002,.02002c-.04999,.07001-.09998,.14001-.14996,.19-.12006,.13-.23004,.20001-.34003,.19-.21002-.02002-.41998-.03998-.62-.09003-.08002-.01001-.15002-.02997-.22998-.04999-.07001-.02002-.15002-.03998-.22003-.06-.15997-.04999-.32001-.10999-.46997-.16998-.04004-.02002-.08002-.03003-.12-.04999-.17004-.08002-.34003-.16003-.51001-.26001h-12.62c-.49005,.64996-.94,1.32001-1.37,2h34.72998c-2.03003-.17999-4.33002-.34003-6.72998-.5Zm22.16998-.25c0-.23004-.01001-.45001-.02002-.67999,0-.19-.01001-.38-.02002-.57001h-11.12994c-.26001,.26996-.52002,.51996-.79004,.73999-.12,.10999-.25,.21002-.37,.29999-.08997,.08002-.17999,.14001-.27002,.20001-.25,.16998-.48999,.32001-.73999,.44-.08997,.04999-.17999,.08997-.26996,.12-.22003,.09998-.44,.15997-.66003,.20001h14.28003c0-.25,0-.5-.01001-.75Zm-22.16998,.25c-.35004-.02002-.69-.04999-1.04004-.07001-1.10999-.08002-2.23999-.15002-3.37-.22998-.57001-.04004-1.13-.07001-1.69-.11005-.06,0-.10999-.01996-.16998-.03998-.03003-.02002-.06-.03003-.09003-.06-.06-.03003-.13-.09003-.19-.16003-.06-.06-.12-.13995-.17999-.21997-.04999-.07001-.10999-.15997-.15997-.23999-.07001-.12-.13-.23999-.20001-.37h-4.07001c-.06,.10999-.12,.20001-.16998,.27997l-.02002,.02002c-.04999,.07001-.09998,.14001-.14996,.19-.12006,.13-.23004,.20001-.34003,.19-.21002-.02002-.41998-.03998-.62-.09003-.08002-.01001-.15002-.02997-.22998-.04999-.07001-.02002-.15002-.03998-.22003-.06-.15997-.04999-.32001-.10999-.46997-.16998-.04004-.02002-.08002-.03003-.12-.04999-.17004-.08002-.34003-.16003-.51001-.26001h-12.62c-.49005,.64996-.94,1.32001-1.37,2h34.72998c-2.03003-.17999-4.33002-.34003-6.72998-.5Zm22.16998-.25c0-.23004-.01001-.45001-.02002-.67999,0-.19-.01001-.38-.02002-.57001h-11.12994c-.26001,.26996-.52002,.51996-.79004,.73999-.12,.10999-.25,.21002-.37,.29999-.08997,.08002-.17999,.14001-.27002,.20001-.25,.16998-.48999,.32001-.73999,.44-.08997,.04999-.17999,.08997-.26996,.12-.22003,.09998-.44,.15997-.66003,.20001h14.28003c0-.25,0-.5-.01001-.75Z" fill="#3f3d56"/><path d="M266.98442,144.48528c-7.97955,2.92679-11.97252-27.13284-13.96426-27.80446-1.85133-.62428-4.13908,29.86924-5.98467,29.26786-44.66578-14.55419-63.2443-49.90339-101.76497-39.92679-10.76381-34.0706-7.67304-71.05441,3.98978-81.95005C167.44254-.10317,202.64025,.73016,226.88229,4.89605c18.95721,3.25771,31.72288,21.75025,27.21806,40.45038-.30349,1.25981-1.51437,2.44775-1.12106,3.60315,1.6806,4.93726,15.46442,72.57394,14.00513,95.53571Z" fill="#2f2e41"/><circle cx="205.11724" cy="51.10563" r="41.8927" fill="#ffb6b6"/><path d="M243.24016,292.48738H125.96534c9.8298-21.93448,15.87304-42.82434,6.42592-59.44071l110.8489-6.42599c-5.5394,22.43144-6.2165,44.44525,0,65.8667Z" fill="#ffb6b6"/><path d="M285.68473,475.32182h-89.29004l-.96997-2-14.23999-29.23004-1.41003,29.23004-.09998,2H91.71469c-.03998-.67004-.08997-1.34003-.13-2-5.41998-83.65002,14.07001-140.35004,25.5-165.72003l.01001-.01001c4.48999-9.97998,7.75-15.10999,7.75-15.10999l1.13-.01001h.01001l22.82996-.39996h.01001l20.22003-.34003,15.27997-.25,6.13-.10999h.01001l3.84003-.06,19.08997-.33002,17.04999-.28998,12.24005-.20001h.33997l1.82001,7.84998v.01001l.07001,.35004v.01001l.31,1.28998,.01001,.03998,.62,2.71002v.02002l.03998,.14996v.01001l.15002,.65002,.01001,.02997,1.44,6.22998,2.32996,10.13,3.07001,13.25,3.87,16.82001,1.96002,8.47003,2.69,11.66998,23.79999,103.14001,.47003,2Z" fill="#2f2e41"/><path d="M226.30889,97.1513l-46.6709-1.62849-18.44831,24.73856-9.7071,2.10791c-14.55116,3.1598-24.53307,16.58027-23.37361,31.42535l-.79247,110.76429-2.64416,17.102,121.73878-37.30911,22.84136-113.35741-32.54609-11.69246-10.39751-22.15064Z" fill="#6c63ff"/><path d="M235.73859,367.2049c1.33817-4.71232,3.62972-8.7317,6.35796-11.5989l9.91232-45.69627,21.60613,5.35277-12.38134,45.77798c.81421,3.87317,.65131,8.49702-.68687,13.20934-3.05704,10.76528-11.08876,17.91512-17.93937,15.96972-6.85061-1.94541-9.92587-12.24936-6.86884-23.01461v-.00002Z" fill="#ffb6b6"/><path d="M238.72769,120.44573s39.89184-2.03178,42.79693,24.42182c2.90509,26.4536,12.19791,89.3404,12.19791,89.3404l-21.54103,101.69364-30.71719-4.26851,13.57448-129.44461-16.31109-81.74274Z" fill="#6c63ff"/><g><path d="M264.82643,95.38633c-3.17389,14.9173-12.70485,24.40629-27.61475,27.61475-13.38384,2.88007-24.05702-12.36734-27.61475-27.61475-3.46553-14.85225,12.66621-24.59145,27.61475-27.61475,15.07799-3.04948,29.30891,19.65222,27.61475,27.61475Z" fill="#3f3d56"/><circle cx="218.91479" cy="86.74613" r="1.69416" fill="#fff"/><circle cx="258.0498" cy="86.74613" r="1.69416" fill="#fff"/><circle cx="233.48453" cy="89.79561" r="1.69416" fill="#fff"/><circle cx="246.02129" cy="80.13892" r="1.69416" fill="#fff"/><path d="M231.28213,75.39528c1.69416,.50825-.7585,1.69416-1.69416,1.69416s-1.69416-.7585-1.69416-1.69416,.7585-1.69416,1.69416-1.69416,0,1.18591,1.69416,1.69416Z" fill="#fff"/><path d="M241.95532,97.92756c1.69416,.50825-.7585,1.69416-1.69416,1.69416s-1.69416-.7585-1.69416-1.69416,.7585-1.69416,1.69416-1.69416,0,1.18591,1.69416,1.69416Z" fill="#fff"/><path d="M241.27765,75.05645c1.69416,.50825-.7585,1.69416-1.69416,1.69416s-1.69416-.7585-1.69416-1.69416,.7585-1.69416,1.69416-1.69416,0,1.18591,1.69416,1.69416Z" fill="#fff"/><path d="M244.49655,111.98906c1.69416,.50825-.7585,1.69416-1.69416,1.69416s-1.69416-.7585-1.69416-1.69416,.7585-1.69416,1.69416-1.69416,0,1.18591,1.69416,1.69416Z" fill="#fff"/><path d="M223.65842,107.24543c1.69416,.50825-.7585,1.69416-1.69416,1.69416s-1.69416-.7585-1.69416-1.69416,.7585-1.69416,1.69416-1.69416,0,1.18591,1.69416,1.69416Z" fill="#6c63ff"/><path d="M253.98383,97.58873c1.69416,.50825-.7585,1.69416-1.69416,1.69416s-1.69416-.7585-1.69416-1.69416,.7585-1.69416,1.69416-1.69416,0,1.18591,1.69416,1.69416Z" fill="#fff"/><path d="M221.62544,97.58873c1.69416,.50825-.7585,1.69416-1.69416,1.69416s-1.69416-.7585-1.69416-1.69416,.7585-1.69416,1.69416-1.69416,0,1.18591,1.69416,1.69416Z" fill="#6c63ff"/><path d="M233.1457,117.91861c1.69416,.50825-.7585,1.69416-1.69416,1.69416s-1.69416-.7585-1.69416-1.69416,.7585-1.69416,1.69416-1.69416,0,1.18591,1.69416,1.69416Z" fill="#fff"/></g><path d="M223.15242,122.2004c-3.11607,3.77978-6.82748,6.54239-10.47674,8.07441l-27.41027,37.88245-17.64443-13.57022,29.70472-36.96689c.80784-3.8745,2.81185-8.04469,5.92792-11.82447,7.11865-8.63491,17.34391-11.96249,22.83882-7.43244,5.49491,4.53005,4.17863,15.20226-2.93999,23.83715l-.00002,.00002Z" fill="#ffb6b6"/><path d="M181.21943,148.8757c4.53519-22.38661-10.22305-54.78972-10.54708-71.55388-.28831-14.91585,3.28194-13.76676,15-23l6-15c4.50761-1.7097,8.85877,3.69351,11.06784,7.17634,1.12791,1.77826,3.67659,1.80323,4.8562,.05883,.5725-.84662,1.12579-1.46313,1.51064-1.43603,1.60892,.11328,2.7706,6.46419,4.41532,6.5745,6.9149,.46376,22.58259,.13065,28.15,.62637,6.06741,.54024,4.68966-14.35183,5.3376-13.18554,5.05856,9.1054,2.33475-2.81446-4.20185-7.81026l9.7265,.9958c5.80725,18.52643,11.41864,36.92126,6.13776,48l-9.68284-27.22136c0-27.54366-13.94896-59.84667-53.84672-51.8671h-.00006c-27.15356-2.71548-51.78737,15.92256-56.63817,42.77697-2.35929,13.0612-6.02658,26.22698-8.51393,37.6969-2.21645,10.22069,.8958,24.10044,11.2901,25.25533l7.06397,16.35926c0,9.596,12.93669,17.60688,22.15433,16.26754,4.73573-.68811,10.23883,7.68028,10.84567,9.73246l-.12527-.44612Z" fill="#2f2e41"/><g><path d="M294.51468,263.77184c-.83997-3.54004-2.64996-6.63-5.13995-9l-.01001-.01001c-3.35004-3.23004-7.94-5.16003-12.94-5.16003h-83.86005c-13.25995,0-24.08997,10.27002-24.64996,23.40002-.15002,3.23999-.09003,6.46002,.13,9.66998,.19,3.04999,.54999,6.07001,1,9.06,.03998,.25,.07001,.5,.12,.75v.01001c2.12,13.22003,6.48999,25.87,10.85999,37.14001,8.27002,21.33002,29.19,35.66998,52.08002,35.66998,1.45001,0,2.88-.06,4.29999-.16998h.01001c7.94-.60004,15.52002-2.91003,22.31-6.62,1.31-.70001,2.57001-1.45001,3.79999-2.27002,0,0,.01001,0,.01001-.01001,9.09998-5.91998,16.46997-14.48999,20.96997-24.92999,8.59003-19.94,16.63-43.57001,11.01001-67.52997Z" fill="#fff"/><g><path d="M242.88263,322.80385c-3.17389,14.9173-12.70485,24.40629-27.61475,27.61475-13.38384,2.88007-24.05702-12.36734-27.61475-27.61475-3.46553-14.85225,12.66621-24.59145,27.61475-27.61475,15.07799-3.04948,29.30891,19.65222,27.61475,27.61475Z" fill="#3f3d56"/><circle cx="196.97099" cy="314.16365" r="1.69416" fill="#6c63ff"/><circle cx="236.10601" cy="314.16365" r="1.69416" fill="#6c63ff"/><circle cx="211.54074" cy="317.21314" r="1.69416" fill="#6c63ff"/><circle cx="224.0775" cy="307.55644" r="1.69416" fill="#6c63ff"/><path d="M209.33833,302.81281c1.69416,.50825-.7585,1.69416-1.69416,1.69416s-1.69416-.7585-1.69416-1.69416,.7585-1.69416,1.69416-1.69416,0,1.18591,1.69416,1.69416Z" fill="#6c63ff"/><path d="M220.01152,325.34509c1.69416,.50825-.7585,1.69416-1.69416,1.69416s-1.69416-.7585-1.69416-1.69416,.7585-1.69416,1.69416-1.69416,0,1.18591,1.69416,1.69416Z" fill="#6c63ff"/><path d="M219.33386,302.47397c1.69416,.50825-.7585,1.69416-1.69416,1.69416s-1.69416-.7585-1.69416-1.69416,.7585-1.69416,1.69416-1.69416,0,1.18591,1.69416,1.69416Z" fill="#6c63ff"/><path d="M222.55275,339.40659c1.69416,.50825-.7585,1.69416-1.69416,1.69416s-1.69416-.7585-1.69416-1.69416,.7585-1.69416,1.69416-1.69416,0,1.18591,1.69416,1.69416Z" fill="#6c63ff"/><path d="M201.71463,334.66295c1.69416,.50825-.7585,1.69416-1.69416,1.69416s-1.69416-.7585-1.69416-1.69416,.7585-1.69416,1.69416-1.69416,0,1.18591,1.69416,1.69416Z" fill="#6c63ff"/><path d="M232.04003,325.00626c1.69416,.50825-.7585,1.69416-1.69416,1.69416s-1.69416-.7585-1.69416-1.69416,.7585-1.69416,1.69416-1.69416,0,1.18591,1.69416,1.69416Z" fill="#6c63ff"/><path d="M199.68164,325.00626c1.69416,.50825-.7585,1.69416-1.69416,1.69416s-1.69416-.7585-1.69416-1.69416,.7585-1.69416,1.69416-1.69416,0,1.18591,1.69416,1.69416Z" fill="#6c63ff"/><path d="M211.20191,345.33613c1.69416,.50825-.7585,1.69416-1.69416,1.69416s-1.69416-.7585-1.69416-1.69416,.7585-1.69416,1.69416-1.69416,0,1.18591,1.69416,1.69416Z" fill="#6c63ff"/></g><g><path d="M266.82132,284.90093c-3.17389,14.9173-12.70485,24.40629-27.61475,27.61475-13.38384,2.88007-24.05702-12.36734-27.61475-27.61475-3.46553-14.85225,12.66621-24.59145,27.61475-27.61475,15.07799-3.04948,29.30891,19.65222,27.61475,27.61475Z" fill="#3f3d56"/><circle cx="220.90968" cy="276.26073" r="1.69416" fill="#6c63ff"/><circle cx="260.04469" cy="276.26073" r="1.69416" fill="#6c63ff"/><circle cx="235.47942" cy="279.31022" r="1.69416" fill="#6c63ff"/><circle cx="248.01618" cy="269.65352" r="1.69416" fill="#6c63ff"/><path d="M233.27702,264.90989c1.69416,.50825-.7585,1.69416-1.69416,1.69416s-1.69416-.7585-1.69416-1.69416,.7585-1.69416,1.69416-1.69416,0,1.18591,1.69416,1.69416Z" fill="#6c63ff"/><path d="M243.95021,287.44217c1.69416,.50825-.7585,1.69416-1.69416,1.69416s-1.69416-.7585-1.69416-1.69416,.7585-1.69416,1.69416-1.69416,0,1.18591,1.69416,1.69416Z" fill="#6c63ff"/><path d="M243.27254,264.57105c1.69416,.50825-.7585,1.69416-1.69416,1.69416s-1.69416-.7585-1.69416-1.69416,.7585-1.69416,1.69416-1.69416,0,1.18591,1.69416,1.69416Z" fill="#6c63ff"/><path d="M246.49144,301.50367c1.69416,.50825-.7585,1.69416-1.69416,1.69416s-1.69416-.7585-1.69416-1.69416,.7585-1.69416,1.69416-1.69416,0,1.18591,1.69416,1.69416Z" fill="#6c63ff"/><path d="M225.65332,296.76003c1.69416,.50825-.7585,1.69416-1.69416,1.69416s-1.69416-.7585-1.69416-1.69416,.7585-1.69416,1.69416-1.69416,0,1.18591,1.69416,1.69416Z" fill="#6c63ff"/><path d="M255.97872,287.10334c1.69416,.50825-.7585,1.69416-1.69416,1.69416s-1.69416-.7585-1.69416-1.69416,.7585-1.69416,1.69416-1.69416,0,1.18591,1.69416,1.69416Z" fill="#6c63ff"/><path d="M223.62033,287.10334c1.69416,.50825-.7585,1.69416-1.69416,1.69416s-1.69416-.7585-1.69416-1.69416,.7585-1.69416,1.69416-1.69416,0,1.18591,1.69416,1.69416Z" fill="#6c63ff"/><path d="M235.14059,307.43321c1.69416,.50825-.7585,1.69416-1.69416,1.69416s-1.69416-.7585-1.69416-1.69416,.7585-1.69416,1.69416-1.69416,0,1.18591,1.69416,1.69416Z" fill="#6c63ff"/></g><g><path d="M234.90307,278.91626c-3.17389,14.9173-12.70485,24.40629-27.61475,27.61475-13.38384,2.88007-24.05702-12.36734-27.61475-27.61475-3.46553-14.85225,12.66621-24.59145,27.61475-27.61475,15.07799-3.04948,29.30891,19.65222,27.61475,27.61475Z" fill="#3f3d56"/><circle cx="188.99143" cy="270.27606" r="1.69416" fill="#6c63ff"/><circle cx="228.12644" cy="270.27606" r="1.69416" fill="#6c63ff"/><circle cx="203.56117" cy="273.32554" r="1.69416" fill="#6c63ff"/><circle cx="216.09793" cy="263.66885" r="1.69416" fill="#6c63ff"/><path d="M201.35877,258.92521c1.69416,.50825-.7585,1.69416-1.69416,1.69416s-1.69416-.7585-1.69416-1.69416,.7585-1.69416,1.69416-1.69416,0,1.18591,1.69416,1.69416Z" fill="#6c63ff"/><path d="M212.03196,281.4575c1.69416,.50825-.7585,1.69416-1.69416,1.69416s-1.69416-.7585-1.69416-1.69416,.7585-1.69416,1.69416-1.69416,0,1.18591,1.69416,1.69416Z" fill="#6c63ff"/><path d="M211.35429,258.58638c1.69416,.50825-.7585,1.69416-1.69416,1.69416s-1.69416-.7585-1.69416-1.69416,.7585-1.69416,1.69416-1.69416,0,1.18591,1.69416,1.69416Z" fill="#6c63ff"/><path d="M214.57319,295.51899c1.69416,.50825-.7585,1.69416-1.69416,1.69416s-1.69416-.7585-1.69416-1.69416,.7585-1.69416,1.69416-1.69416,0,1.18591,1.69416,1.69416Z" fill="#6c63ff"/><path d="M193.73507,290.77536c1.69416,.50825-.7585,1.69416-1.69416,1.69416s-1.69416-.7585-1.69416-1.69416,.7585-1.69416,1.69416-1.69416,0,1.18591,1.69416,1.69416Z" fill="#6c63ff"/><path d="M224.06047,281.11866c1.69416,.50825-.7585,1.69416-1.69416,1.69416s-1.69416-.7585-1.69416-1.69416,.7585-1.69416,1.69416-1.69416,0,1.18591,1.69416,1.69416Z" fill="#6c63ff"/><path d="M191.70208,281.11866c1.69416,.50825-.7585,1.69416-1.69416,1.69416s-1.69416-.7585-1.69416-1.69416,.7585-1.69416,1.69416-1.69416,0,1.18591,1.69416,1.69416Z" fill="#6c63ff"/><path d="M203.22234,301.44854c1.69416,.50825-.7585,1.69416-1.69416,1.69416s-1.69416-.7585-1.69416-1.69416,.7585-1.69416,1.69416-1.69416,0,1.18591,1.69416,1.69416Z" fill="#6c63ff"/></g><g><path d="M258.84176,241.01334c-3.17389,14.9173-12.70485,24.40629-27.61475,27.61475-13.38384,2.88007-24.05702-12.36734-27.61475-27.61475-3.46553-14.85225,12.66621-24.59145,27.61475-27.61475,15.07799-3.04948,29.30891,19.65222,27.61475,27.61475Z" fill="#3f3d56"/><circle cx="212.93011" cy="232.37314" r="1.69416" fill="#fff"/><circle cx="252.06513" cy="232.37314" r="1.69416" fill="#fff"/><circle cx="227.49986" cy="235.42262" r="1.69416" fill="#fff"/><circle cx="240.03662" cy="225.76593" r="1.69416" fill="#fff"/><path d="M225.29746,221.02229c1.69416,.50825-.7585,1.69416-1.69416,1.69416s-1.69416-.7585-1.69416-1.69416,.7585-1.69416,1.69416-1.69416,0,1.18591,1.69416,1.69416Z" fill="#fff"/><path d="M235.97064,243.55457c1.69416,.50825-.7585,1.69416-1.69416,1.69416s-1.69416-.7585-1.69416-1.69416,.7585-1.69416,1.69416-1.69416,0,1.18591,1.69416,1.69416Z" fill="#fff"/><path d="M235.29298,220.68346c1.69416,.50825-.7585,1.69416-1.69416,1.69416s-1.69416-.7585-1.69416-1.69416,.7585-1.69416,1.69416-1.69416,0,1.18591,1.69416,1.69416Z" fill="#fff"/><path d="M238.51188,257.61607c1.69416,.50825-.7585,1.69416-1.69416,1.69416s-1.69416-.7585-1.69416-1.69416,.7585-1.69416,1.69416-1.69416,0,1.18591,1.69416,1.69416Z" fill="#6c63ff"/><path d="M217.67375,252.87244c1.69416,.50825-.7585,1.69416-1.69416,1.69416s-1.69416-.7585-1.69416-1.69416,.7585-1.69416,1.69416-1.69416,0,1.18591,1.69416,1.69416Z" fill="#6c63ff"/><path d="M247.99916,243.21574c1.69416,.50825-.7585,1.69416-1.69416,1.69416s-1.69416-.7585-1.69416-1.69416,.7585-1.69416,1.69416-1.69416,0,1.18591,1.69416,1.69416Z" fill="#fff"/><path d="M215.64077,243.21574c1.69416,.50825-.7585,1.69416-1.69416,1.69416s-1.69416-.7585-1.69416-1.69416,.7585-1.69416,1.69416-1.69416,0,1.18591,1.69416,1.69416Z" fill="#fff"/><path d="M227.16103,263.54562c1.69416,.50825-.7585,1.69416-1.69416,1.69416s-1.69416-.7585-1.69416-1.69416,.7585-1.69416,1.69416-1.69416,0,1.18591,1.69416,1.69416Z" fill="#6c63ff"/></g><g><path d="M282.78044,322.80385c-3.17389,14.9173-12.70485,24.40629-27.61475,27.61475-13.38384,2.88007-24.05702-12.36734-27.61475-27.61475-3.46553-14.85225,12.66621-24.59145,27.61475-27.61475,15.07799-3.04948,29.30891,19.65222,27.61475,27.61475Z" fill="#3f3d56"/><circle cx="236.8688" cy="314.16365" r="1.69416" fill="#6c63ff"/><circle cx="276.00382" cy="314.16365" r="1.69416" fill="#6c63ff"/><circle cx="251.43855" cy="317.21314" r="1.69416" fill="#6c63ff"/><circle cx="263.97531" cy="307.55644" r="1.69416" fill="#6c63ff"/><path d="M249.23614,302.81281c1.69416,.50825-.7585,1.69416-1.69416,1.69416s-1.69416-.7585-1.69416-1.69416,.7585-1.69416,1.69416-1.69416,0,1.18591,1.69416,1.69416Z" fill="#6c63ff"/><path d="M259.90933,325.34509c1.69416,.50825-.7585,1.69416-1.69416,1.69416s-1.69416-.7585-1.69416-1.69416,.7585-1.69416,1.69416-1.69416,0,1.18591,1.69416,1.69416Z" fill="#6c63ff"/><path d="M259.23167,302.47397c1.69416,.50825-.7585,1.69416-1.69416,1.69416s-1.69416-.7585-1.69416-1.69416,.7585-1.69416,1.69416-1.69416,0,1.18591,1.69416,1.69416Z" fill="#6c63ff"/><path d="M262.45057,339.40659c1.69416,.50825-.7585,1.69416-1.69416,1.69416s-1.69416-.7585-1.69416-1.69416,.7585-1.69416,1.69416-1.69416,0,1.18591,1.69416,1.69416Z" fill="#6c63ff"/><path d="M241.61244,334.66295c1.69416,.50825-.7585,1.69416-1.69416,1.69416s-1.69416-.7585-1.69416-1.69416,.7585-1.69416,1.69416-1.69416,0,1.18591,1.69416,1.69416Z" fill="#6c63ff"/><path d="M271.93784,325.00626c1.69416,.50825-.7585,1.69416-1.69416,1.69416s-1.69416-.7585-1.69416-1.69416,.7585-1.69416,1.69416-1.69416,0,1.18591,1.69416,1.69416Z" fill="#6c63ff"/><path d="M239.57945,325.00626c1.69416,.50825-.7585,1.69416-1.69416,1.69416s-1.69416-.7585-1.69416-1.69416,.7585-1.69416,1.69416-1.69416,0,1.18591,1.69416,1.69416Z" fill="#6c63ff"/><path d="M251.09972,345.33613c1.69416,.50825-.7585,1.69416-1.69416,1.69416s-1.69416-.7585-1.69416-1.69416,.7585-1.69416,1.69416-1.69416,0,1.18591,1.69416,1.69416Z" fill="#6c63ff"/></g><path d="M294.51468,263.77184c-.83997-3.54004-2.64996-6.63-5.13995-9l-.01001-.01001c-3.35004-3.23004-7.93999-5.16003-12.93999-5.16003-31.19916,16.58792-58.74255,14.4928-83.86005,0-13.25995,0-24.08998,10.27002-24.64998,23.40002-.15002,3.23999-.09003,6.46002,.13,9.66998,.19,3.04999,.54999,6.07001,1,9.06,.03998,.25,.07001,.5,.12,.75v.01001c2.12,13.22003,6.48999,25.87,10.85999,37.14001,8.27002,21.33002,29.19,35.66998,52.08002,35.66998,1.45001,0,2.88-.06,4.29999-.16998h.01001c7.94-.60004,15.52002-2.91003,22.31-6.62,1.31-.70001,2.57001-1.45001,3.79999-2.27002,0,0,.01001,0,.01001-.01001,9.09998-5.91998,16.46997-14.48999,20.96997-24.92999,8.59003-19.94,16.63-43.57001,11.01001-67.52997Z" fill="#e6e6e6" opacity=".7"/></g><path d="M149.26031,126.91147s-29.02801-15.95912-38.45269,0c-8.04123,13.61648-15.03046,82.4171-16.90909,102.32222-.32975,3.49387,.51369,6.98718,2.3978,9.94792v.00002c5.57976,8.76817,17.96503,9.84112,24.96952,2.16312l89.83608-98.47416-27.92847-13.96423-47.87737,49.87226,13.96423-51.86715Z" fill="#6c63ff"/></svg>